<svg width="131" height="53" viewBox="0 0 131 53" fill="none" xmlns="http://www.w3.org/2000/svg">
<path d="M15.504 52.32C12.4 52.32 9.68 51.232 7.344 49.056C5.04 46.88 3.232 43.824 1.92 39.888C0.639998 35.952 -1.66893e-06 31.376 -1.66893e-06 26.16C-1.66893e-06 20.912 0.639998 16.336 1.92 12.432C3.232 8.49601 5.04 5.44001 7.344 3.26401C9.68 1.08801 12.4 1.33514e-05 15.504 1.33514e-05V4.41601C13.36 4.41601 11.488 5.32801 9.888 7.15201C8.288 8.94401 7.04 11.472 6.144 14.736C5.248 18 4.8 21.808 4.8 26.16C4.8 30.512 5.248 34.32 6.144 37.584C7.04 40.848 8.288 43.392 9.888 45.216C11.488 47.008 13.36 47.904 15.504 47.904V52.32ZM23.5012 45.36V15.696H28.3012V16.176C29.0372 15.76 29.6612 15.472 30.1732 15.312C30.6852 15.12 31.2772 15.024 31.9492 15.024C33.2612 15.024 34.2532 15.232 34.9252 15.648C35.6292 16.064 36.2692 16.832 36.8452 17.952C37.6772 16.832 38.4932 16.064 39.2932 15.648C40.0932 15.232 41.1332 15.024 42.4132 15.024C44.1412 15.024 45.5012 15.392 46.4932 16.128C47.4853 16.864 48.1892 18.112 48.6052 19.872C49.0212 21.6 49.2292 23.968 49.2292 26.976V45.36H44.4292V26.976C44.4292 25.184 44.3652 23.776 44.2372 22.752C44.1092 21.696 43.9012 20.944 43.6132 20.496C43.3252 20.048 42.9252 19.824 42.4132 19.824C41.4852 19.824 40.7492 20.032 40.2052 20.448C39.6932 20.864 39.3252 21.568 39.1012 22.56C38.8772 23.552 38.7652 24.896 38.7652 26.592V45.36H33.9652V27.264C33.9652 25.408 33.9012 23.936 33.7732 22.848C33.6452 21.76 33.4372 20.992 33.1492 20.544C32.8612 20.064 32.4612 19.824 31.9492 19.824C31.0212 19.824 30.2852 20.032 29.7412 20.448C29.2292 20.864 28.8612 21.568 28.6372 22.56C28.4132 23.552 28.3012 24.896 28.3012 26.592V45.36H23.5012ZM68.2665 46.032C66.0265 46.032 64.2185 45.648 62.8425 44.88C61.4665 44.08 60.4585 42.832 59.8185 41.136C59.2105 39.44 58.9065 37.216 58.9065 34.464V19.68H52.9545V15.264H58.9065V6.96002H63.7065V15.264H73.6905V19.68H63.7065V34.464C63.7065 37.184 64.0425 39.056 64.7145 40.08C65.3865 41.104 66.5705 41.616 68.2665 41.616C69.4185 41.616 70.2825 41.536 70.8585 41.376C71.4665 41.184 71.9145 40.864 72.2025 40.416C72.5225 39.968 72.8105 39.312 73.0665 38.448L77.5785 39.984C77.1305 41.488 76.5385 42.688 75.8025 43.584C75.0665 44.448 74.0905 45.072 72.8745 45.456C71.6905 45.84 70.1545 46.032 68.2665 46.032ZM93.9277 46.032C92.3917 46.032 91.3357 45.76 90.7597 45.216C90.1837 44.672 89.8957 43.696 89.8957 42.288C89.8957 40.88 90.1837 39.904 90.7597 39.36C91.3357 38.816 92.3917 38.544 93.9277 38.544C95.4637 38.544 96.5197 38.816 97.0957 39.36C97.6717 39.904 97.9597 40.88 97.9597 42.288C97.9597 43.696 97.6717 44.672 97.0957 45.216C96.5197 45.76 95.4637 46.032 93.9277 46.032ZM114.789 52.32V47.904C116.933 47.904 118.805 47.008 120.405 45.216C122.005 43.392 123.253 40.848 124.149 37.584C125.045 34.32 125.493 30.512 125.493 26.16C125.493 21.808 125.045 18 124.149 14.736C123.253 11.472 122.005 8.94401 120.405 7.15201C118.805 5.32801 116.933 4.41601 114.789 4.41601V1.33514e-05C117.893 1.33514e-05 120.597 1.08801 122.901 3.26401C125.237 5.44001 127.045 8.49601 128.325 12.432C129.637 16.336 130.293 20.912 130.293 26.16C130.293 31.376 129.637 35.952 128.325 39.888C127.045 43.824 125.237 46.88 122.901 49.056C120.597 51.232 117.893 52.32 114.789 52.32Z" fill="#4ade80"/>
</svg>
